<svg width="512" height="512" viewBox="0 0 512 512" fill="none" xmlns="http://www.w3.org/2000/svg"><path fill="#81B3D3" d="M0 0h512v512H0z"/><path d="M176.01 314.46c.34.35.52.69.52 1.04.34 0 .69.16 1.03.51a230.76 230.76 0 0 0 31.48 28.85c11.7 8.58 25.11 13.21 40.25 13.9.34 0 .69.18 1.03.52h1.55c.34 0 .69.17 1.03.52h5.67c1.73-.35 3.28-.7 4.65-1.04a43.1 43.1 0 0 0 15.48-6.18c5.16-3.09 9.12-6.87 11.87-11.33l1.03-2.06 1.03-2.06c.7-2.4 1.2-4.64 1.56-6.7.34-2.06.51-3.95.51-5.66 0-9.27-4.13-17-12.38-23.18a88.66 88.66 0 0 0-25.8-14.94 74.74 74.74 0 0 0-10.84-3.1c-3.24-.97-6.51-1.83-9.8-2.57h-1.04c-.34-.34-.69-.51-1.03-.51a169.02 169.02 0 0 1-47.47-19.58c-14.8-9.27-24.95-22.5-30.45-39.66-1.08-3.6-2.11-7.2-3.1-10.82-.7-3.92-1.22-7.87-1.54-11.84-.32-1.18-.5-2.4-.52-3.61v-12.37c.34-2.74.86-5.49 1.55-8.24 1.06-7.01 2.8-13.91 5.16-20.6a78 78 0 0 1 9.28-18.54c11.01-18.2 25.12-31.26 42.32-39.15a131.83 131.83 0 0 1 54.7-11.85c4.47 0 8.94.34 13.42 1.03 4.83.34 9.65.86 14.44 1.54a176.85 176.85 0 0 1 36.64 10.3 197.03 197.03 0 0 1 34.06 17l-28.38 63.36a198.43 198.43 0 0 0-29.42-18.02 74 74 0 0 0-33.54-7.73h-4.13c-7.9 1.03-15.3 4.64-22.19 10.81-6.87 5.84-10.31 12.2-10.31 19.06v3.1c.34 1.03.85 2.06 1.54 3.09.7 2.4 1.9 4.63 3.62 6.7a44.4 44.4 0 0 0 5.67 5.66c3.79 3.1 9.29 6.01 16.52 8.76 7.22 2.4 14.79 4.8 22.7 7.2a1464 1464 0 0 1 19.1 5.16c6.19 1.37 11.35 2.75 15.47 4.12 19.27 6.87 33.72 18.37 43.35 34.51 9.63 15.8 14.62 32.63 14.96 50.48v2.58c0 2.06-.17 4.12-.51 6.18v5.67c-2.06 17.85-7.91 34.85-17.55 51-9.28 16.13-21.84 28.5-37.66 37.09a165.13 165.13 0 0 1-18.07 7.2 368.01 368.01 0 0 1-18.57 4.64 119.53 119.53 0 0 1-15.48 2.06c-4.96.67-9.96 1.02-14.97 1.03h-5.68c-20.64-.68-40.93-5.15-60.89-13.4a189.72 189.72 0 0 1-53.14-34L176 314.47Z" fill="#fff"/></svg>